<?xml version="1.0" standalone="no"?>
<!DOCTYPE svg PUBLIC "-//W3C//DTD SVG 20010904//EN"
 "http://www.w3.org/TR/2001/REC-SVG-20010904/DTD/svg10.dtd">
<svg version="1.0" xmlns="http://www.w3.org/2000/svg"
 width="439.000000pt" height="439.000000pt" viewBox="0 0 439.000000 439.000000"
 preserveAspectRatio="xMidYMid meet">
<metadata>
Created by potrace 1.11, written by Peter Selinger 2001-2013
</metadata>
<g transform="translate(0.000000,439.000000) scale(0.100000,-0.100000)"
fill="#000000" stroke="none">
<path d="M2080 4384 c-301 -21 -587 -96 -845 -223 -675 -333 -1111 -946 -1216
-1711 -15 -109 -15 -401 0 -510 69 -500 269 -920 606 -1269 344 -357 795 -580
1315 -652 109 -15 401 -15 510 0 262 36 487 103 705 210 453 224 799 573 1017
1029 141 294 211 603 211 937 0 248 -32 450 -108 682 -264 805 -974 1388
-1820 1492 -96 12 -298 20 -375 15z m398 -950 c147 -130 283 -251 302 -268 19
-18 134 -119 255 -226 121 -107 222 -197 225 -200 3 -3 121 -108 263 -234 141
-125 257 -228 257 -229 0 -2 -34 -38 -76 -81 -68 -69 -78 -76 -92 -63 -10 7
-71 61 -137 118 -127 110 -188 159 -198 159 -4 0 -7 -286 -7 -635 l0 -635
-1105 0 -1105 0 0 623 c0 357 -4 628 -9 636 -10 15 -21 8 -137 -86 -129 -105
-206 -164 -209 -161 -34 36 -134 164 -133 169 4 8 49 46 524 440 203 168 532
442 732 608 200 165 368 301 373 301 6 0 130 -106 277 -236z"/>
<path d="M1900 3129 c-151 -127 -302 -254 -336 -282 -33 -29 -106 -90 -162
-137 l-102 -85 0 -622 0 -623 865 0 865 0 0 623 -1 622 -257 227 c-141 124
-329 290 -416 367 -88 78 -165 141 -170 141 -6 0 -135 -104 -286 -231z m392
-536 l3 -238 238 -3 238 -2 -3 -113 -3 -112 -237 -3 -238 -2 0 -235 0 -235
-110 0 -110 0 -2 233 -3 232 -237 3 -238 2 0 115 0 115 234 0 c209 0 235 2
240 17 4 9 6 113 6 232 0 119 -1 219 0 224 0 4 49 7 110 7 l110 0 2 -237z"/>
</g>
</svg>
